<?xml version="1.0" encoding="UTF-8" standalone="no" ?>
<!DOCTYPE svg PUBLIC "-//W3C//DTD SVG 1.1//EN" "http://www.w3.org/Graphics/SVG/1.1/DTD/svg11.dtd">
<svg xmlns="http://www.w3.org/2000/svg" xmlns:xlink="http://www.w3.org/1999/xlink" version="1.1" width="1280" height="1024" viewBox="0 0 1280 1024" xml:space="preserve">
<desc>Created with Fabric.js 4.4.0</desc>
<defs>
</defs>
<g transform="matrix(1 0 0 1 640 512)" id="background-logo"  >
<rect style="stroke: none; stroke-width: 0; stroke-dasharray: none; stroke-linecap: butt; stroke-dashoffset: 0; stroke-linejoin: miter; stroke-miterlimit: 4; fill: rgb(255,255,255); fill-rule: nonzero; opacity: 1;"  paint-order="stroke"  x="-640" y="-512" rx="0" ry="0" width="1280" height="1024" />
</g>
<g transform="matrix(2.3593667890134347 0 0 2.359366789013434 640.3500077857366 429.27351691802926)" id="logo-logo"  >
<g style=""  paint-order="stroke"   >
		<g transform="matrix(0.3251128962847879 0 0 0.3251128962847879 0 -5.917054712383191)"  >
<path style="stroke: none; stroke-width: 1; stroke-dasharray: none; stroke-linecap: butt; stroke-dashoffset: 0; stroke-linejoin: miter; stroke-miterlimit: 4; fill: rgb(252,148,76); fill-rule: nonzero; opacity: 1;"  paint-order="stroke"  transform=" translate(-500, -481.79999999999995)" d="M 694 575.6 L 725.5 593.8000000000001 L 694 612 L 662.5 630.2 L 662.5 630.2 L 531.5 705.8000000000001 L 531.5 705.8000000000001 L 500 724 L 468.5 705.8 L 400.5 666.5999999999999 L 369 648.4 L 369 648.4 L 400.5 630.1999999999999 L 500 687.5999999999999 L 631 612 L 662.5 593.8 L 637.5 579.4 L 637.5 579.4 L 584.5 548.8 L 553 530.6 L 584.5 512.4 L 637.5 543 L 662.5 557.4 L 694 575.6 z M 362.5 420.6 L 500 500 L 637.5 420.6 L 531.5 359.40000000000003 L 531.5 420.6 L 500 438.8 L 468.5 420.6 L 468.5 359.40000000000003 L 362.5 420.6 z M 531.5 294.2 L 531.5 294.2 L 662.5 369.79999999999995 L 662.5 369.79999999999995 L 662.5 369.79999999999995 L 694 388 L 725.5 369.8 L 694 351.6 L 531.5 257.8 L 531.5 257.8 L 500 239.6 L 468.5 257.8 L 500 276 L 531.5 294.2 z M 447 530.6 L 415.5 512.4 L 362.5 543 L 337.5 557.4 L 337.5 593.8 L 337.5 593.8 L 362.5 579.4 L 415.5 548.8 L 447 530.6 z M 337.5 369.8 L 405.5 330.6 L 437 312.40000000000003 L 405.5 294.20000000000005 L 306 351.6 L 274.5 369.8 L 306 388 L 337.5 369.8 L 337.5 369.8 z" stroke-linecap="round" />
</g>
		<g transform="matrix(0.3251128962847879 0 0 0.3251128962847879 5.120528116485389 11.834109424766268)"  >
<path style="stroke: none; stroke-width: 1; stroke-dasharray: none; stroke-linecap: butt; stroke-dashoffset: 0; stroke-linejoin: miter; stroke-miterlimit: 4; fill: rgb(252,187,92); fill-rule: nonzero; opacity: 1;"  paint-order="stroke"  transform=" translate(-515.75, -536.4)" d="M 725.5 593.8 L 725.5 630.1999999999999 L 725.5 630.1999999999999 L 694 648.4 L 531.5 742.1999999999999 L 500 760.4 L 500 724 L 531.5 705.8 L 531.5 705.8 L 662.5 630.1999999999999 L 662.5 630.1999999999999 L 694 612 L 725.5 593.8 L 725.5 593.8 L 725.5 593.8 z M 725.5 369.8 L 694 388 L 694 539.3 L 725.5 521.0999999999999 L 725.5 369.8 z M 553 567 L 553 530.6 L 584.5 512.4 L 637.5 543 L 637.5 420.6 L 500 500 L 500 658.8 L 606 597.5999999999999 L 553 567 z M 531.5 330.6 L 500 312.4 L 500 438.79999999999995 L 531.5 420.59999999999997 L 531.5 330.6 z M 362.5 579.4 L 337.5 593.8 L 337.5 593.8 L 337.5 406.2 L 337.5 406.2 L 437 348.8 L 437 312.40000000000003 L 405.5 330.6 L 337.5 369.8 L 337.5 369.8 L 306 388 L 306 648.4 L 337.5 630.1999999999999 L 337.5 630.1999999999999 L 369 612 L 369 612 L 394 597.6 L 447 567 L 447 530.6 L 415.5 548.8000000000001 L 362.5 579.4 z" stroke-linecap="round" />
</g>
		<g transform="matrix(0.3251128962847879 0 0 0.3251128962847879 -5.120528116485389 2.9585273561915812)"  >
<path style="stroke: none; stroke-width: 1; stroke-dasharray: none; stroke-linecap: butt; stroke-dashoffset: 0; stroke-linejoin: miter; stroke-miterlimit: 4; fill: rgb(13,74,139); fill-rule: nonzero; opacity: 1;"  paint-order="stroke"  transform=" translate(-484.25, -509.1)" d="M 694 388 L 694 539.3 L 662.5 521.0999999999999 L 662.5 406.2 L 531.5 330.6 L 500 312.4 L 500 438.79999999999995 L 468.5 420.59999999999997 L 468.5 257.8 L 500 276 L 531.5 294.2 L 531.5 294.2 L 662.5 369.79999999999995 L 662.5 369.79999999999995 L 662.5 369.79999999999995 L 694 388 z M 637.5 579.4 L 584.5 548.8 L 553 530.6 L 553 567 L 606 597.6 L 631 612 L 662.5 593.8 L 637.5 579.4 L 637.5 579.4 z M 362.5 543 L 415.5 512.4 L 447 530.6 L 447 567 L 394 597.6 L 500 658.8000000000001 L 500 500 L 362.5 420.6 L 362.5 543 z M 400.5 666.6 L 369 648.4 L 369 684.8 L 468.5 742.1999999999999 L 500 760.4 L 500 724 L 468.5 705.8 L 400.5 666.6 z M 274.5 630.2 L 306 648.4000000000001 L 306 388 L 274.5 369.8 L 274.5 630.2 z" stroke-linecap="round" />
</g>
</g>
</g>
<g transform="matrix(1.9211538461538462 0 0 1.9211538461538462 640.2621149972749 715.7444823140647)" id="text-logo"  >
<g style=""  paint-order="stroke"   >
		<g transform="matrix(1 0 0 1 0 0)" id="text-logo-path-0"  >
<path style="stroke: none; stroke-width: 0; stroke-dasharray: none; stroke-linecap: butt; stroke-dashoffset: 0; stroke-linejoin: miter; stroke-miterlimit: 4; fill: rgb(13,74,139); fill-rule: nonzero; opacity: 1;"  paint-order="stroke"  transform=" translate(-152.225, 25.16)" d="M 2.44 0 L 2.44 -50.32 L 18.06 -50.32 Q 25.13 -50.32 29.34 -47.31 Q 33.55 -44.29 33.55 -37.52 L 33.55 -37.52 Q 33.55 -29.95 27.27 -26.72 L 27.27 -26.72 Q 38 -24.83 38 -14.03 L 38 -14.03 Q 38 -7.69 33.61 -3.84 Q 29.22 0 21.53 0 L 21.53 0 L 2.44 0 Z M 13.91 -41.48 L 13.91 -30.62 L 14.82 -30.62 Q 18.67 -30.62 20.56 -31.96 Q 22.45 -33.31 22.45 -36.36 L 22.45 -36.36 Q 22.45 -41.48 14.82 -41.48 L 14.82 -41.48 L 13.91 -41.48 Z M 13.91 -20.74 L 13.91 -8.85 L 17.51 -8.85 Q 25.93 -8.85 25.93 -14.46 L 25.93 -14.46 Q 25.93 -17.81 23.82 -19.28 Q 21.72 -20.74 17.51 -20.74 L 17.51 -20.74 L 13.91 -20.74 Z M 82.9 -50.32 L 94.37 -50.32 L 94.37 -17.87 Q 94.37 -8.6 89.37 -3.84 Q 84.36 0.92 74.72 0.92 Q 65.09 0.92 60.09 -3.84 Q 55.08 -8.6 55.08 -17.87 L 55.08 -17.87 L 55.08 -50.32 L 66.55 -50.32 L 66.55 -21.23 Q 66.55 -15.13 68.47 -12.75 Q 70.39 -10.37 74.72 -10.37 Q 79.06 -10.37 80.98 -12.75 Q 82.9 -15.13 82.9 -21.23 L 82.9 -21.23 L 82.9 -50.32 Z M 131.03 -51.24 L 131.03 -51.24 Q 135.12 -51.24 139.02 -50.05 Q 142.92 -48.86 144.81 -47.7 L 144.81 -47.7 L 146.64 -46.48 L 142.01 -37.33 Q 141.46 -37.7 140.48 -38.28 Q 139.51 -38.86 136.82 -39.83 Q 134.14 -40.81 131.82 -40.81 L 131.82 -40.81 Q 128.95 -40.81 127.4 -39.59 Q 125.84 -38.37 125.84 -36.3 L 125.84 -36.3 Q 125.84 -35.26 126.58 -34.37 Q 127.31 -33.49 129.08 -32.48 Q 130.84 -31.48 132.19 -30.87 Q 133.53 -30.26 136.34 -29.04 L 136.34 -29.04 Q 141.22 -26.96 144.66 -23.39 Q 148.11 -19.82 148.11 -15.31 L 148.11 -15.31 Q 148.11 -10.98 146.55 -7.75 Q 145 -4.51 142.28 -2.68 Q 139.57 -0.85 136.27 0.03 Q 132.98 0.92 129.14 0.92 L 129.14 0.92 Q 125.84 0.92 122.67 0.24 Q 119.5 -0.43 117.36 -1.43 Q 115.23 -2.44 113.52 -3.42 Q 111.81 -4.39 111.02 -5.06 L 111.02 -5.06 L 110.23 -5.73 L 115.96 -15.37 Q 116.69 -14.76 117.97 -13.82 Q 119.26 -12.87 122.52 -11.29 Q 125.78 -9.7 128.28 -9.7 L 128.28 -9.7 Q 135.54 -9.7 135.54 -14.64 L 135.54 -14.64 Q 135.54 -15.68 135.02 -16.56 Q 134.5 -17.45 133.19 -18.33 Q 131.88 -19.21 130.88 -19.73 Q 129.87 -20.25 127.58 -21.32 Q 125.29 -22.39 124.2 -22.94 L 124.2 -22.94 Q 119.62 -25.19 117.12 -28.58 Q 114.62 -31.96 114.62 -35.87 L 114.62 -35.87 Q 114.62 -42.64 119.62 -46.94 Q 124.62 -51.24 131.03 -51.24 Z M 174.22 -40.26 L 162.26 -40.26 L 162.26 -50.32 L 197.64 -50.32 L 197.64 -40.26 L 185.68 -40.26 L 185.68 0 L 174.22 0 L 174.22 -40.26 Z M 214.72 -50.32 L 243.51 -50.32 L 243.51 -40.26 L 226.19 -40.26 L 226.19 -30.26 L 242.78 -30.26 L 242.78 -20.19 L 226.19 -20.19 L 226.19 -10.06 L 243.51 -10.06 L 243.51 0 L 214.72 0 L 214.72 -50.32 Z M 260.59 0 L 260.59 -50.32 L 278.59 -50.32 Q 285.85 -50.32 290.42 -46.45 Q 295 -42.58 295 -35.38 L 295 -35.38 Q 295 -29.83 292.22 -26.08 Q 289.44 -22.33 284.69 -20.8 L 284.69 -20.8 L 302.01 0 L 287.43 0 L 272.06 -19.89 L 272.06 0 L 260.59 0 Z M 272.06 -41.17 L 272.06 -28 L 273.4 -28 Q 274.99 -28 276.09 -28.06 Q 277.18 -28.12 278.59 -28.49 Q 279.99 -28.85 280.84 -29.52 Q 281.7 -30.2 282.31 -31.48 Q 282.92 -32.76 282.92 -34.59 Q 282.92 -36.42 282.31 -37.7 Q 281.7 -38.98 280.84 -39.65 Q 279.99 -40.32 278.59 -40.69 Q 277.18 -41.05 276.09 -41.11 Q 274.99 -41.17 273.4 -41.17 L 273.4 -41.17 L 272.06 -41.17 Z" stroke-linecap="round" />
</g>
</g>
</g>
</svg>